<?xml version="1.0" standalone="no"?><!DOCTYPE svg PUBLIC "-//W3C//DTD SVG 1.1//EN" "http://www.w3.org/Graphics/SVG/1.1/DTD/svg11.dtd"><svg t="1637811724497" class="icon" viewBox="0 0 1024 1024" version="1.1" xmlns="http://www.w3.org/2000/svg" p-id="3774" xmlns:xlink="http://www.w3.org/1999/xlink" width="200" height="200"><defs><style type="text/css"></style></defs><path d="M64.253613 920.570265l915.492774-528.56 36.64 63.462342-915.492774 528.56-36.64-63.462342Z" fill="#2DA8C4" p-id="3775"></path><path d="M612.32 573.12a18.24 18.24 0 0 1-16-4.48l-27.68-25.6-36.8 8.32a18.4 18.4 0 0 1-16-4.48l-27.68-25.6-36.8 8.32a18.4 18.4 0 0 1-16-4.48l-27.52-25.6-36.8 8.32a18.24 18.24 0 0 1-16-4.48l-27.68-25.6-39.36 8.64a18.24 18.24 0 0 1-16-4.48l-34.72-32A641.92 641.92 0 0 1 163.52 512l6.56 6.08 36.8-8.32a18.4 18.4 0 0 1 16 4.48l27.68 25.6L288 531.2a18.56 18.56 0 0 1 16 4.48l27.52 25.6 36.8-8.32a18.4 18.4 0 0 1 16 4.48l27.68 25.6 36.8-8.32a18.4 18.4 0 0 1 16 4.48l27.68 25.6 36.8-8.32a18.24 18.24 0 0 1 16 4.48l27.52 25.44L661.28 576l-12-11.04zM492.32 642.56a18.24 18.24 0 0 1-16-4.48L448 612.48l-36.8 8.32a18.4 18.4 0 0 1-16-4.48l-27.68-25.6-36.8 8.32a18.24 18.24 0 0 1-16-4.48l-27.52-25.6-36.8 8.32a18.4 18.4 0 0 1-16-4.48l-27.68-25.6-36.8 8.32a18.4 18.4 0 0 1-16-4.48l-20-16.48a431.04 431.04 0 0 0-46.88 44l16 17.6 28.32-8.8a18.4 18.4 0 0 1 19.36 4.64l20 21.76 28.48-8.8a18.4 18.4 0 0 1 18.88 5.12l20.16 21.76 28.32-7.84a18.4 18.4 0 0 1 18.88 5.12l20.32 21.92 28.32-8.8a18.4 18.4 0 0 1 18.88 5.12l20.32 21.92 28.48-8.8a18.4 18.4 0 0 1 18.88 5.12l28.16 30.4a17.44 17.44 0 0 1 1.6 2.56l90.72-52.32-12-11.04zM971.04 382.88A640 640 0 0 0 873.28 240a17.92 17.92 0 0 1-4.32 3.2 250.08 250.08 0 0 1-108 24.48 250.56 250.56 0 0 1-164.8-61.76 17.12 17.12 0 0 1-1.12-1.44 156.64 156.64 0 0 1-181.76 17.92l-1.76-1.12a13.44 13.44 0 0 0-19.04 6.08 787.2 787.2 0 0 1-130.4 195.68L290.08 448l36.8-8.32a18.4 18.4 0 0 1 16 4.48l27.68 25.6 36.8-8.32a18.4 18.4 0 0 1 16 4.48l27.52 25.6 36.8-8.32a18.4 18.4 0 0 1 16 4.48l27.68 25.6 36.8-8.32a18.4 18.4 0 0 1 16 4.48l27.68 25.6 36.8-8.32a18.24 18.24 0 0 1 16 4.48l27.52 25.44L965.76 400a13.28 13.28 0 0 0 5.28-17.12z" fill="#58C6FE" p-id="3776"></path><path d="M848 212.16a792.32 792.32 0 0 0-177.44-134.24 13.44 13.44 0 0 0-19.84 11.68 155.2 155.2 0 0 1-29.76 87.68A213.44 213.44 0 0 0 848 212.16zM373.12 707.04a18.4 18.4 0 0 1-18.88-5.12l-20.32-21.92-28.32 8.8a18.4 18.4 0 0 1-18.88-5.12l-20.32-21.92-28.48 8.8a18.4 18.4 0 0 1-18.88-5.12l-20.16-21.76-28.48 8.8a18.4 18.4 0 0 1-18.88-5.12l-20-21.6-28.32 8.8a18.24 18.24 0 0 1-18.88-5.12L64 608c-99.2 135.84-32 267.36-9.76 304.96a13.12 13.12 0 0 0 17.76 4.32l346.4-201.12-16-18.08z" fill="#58C6FE" p-id="3777"></path><path d="M420.8 664.8a18.4 18.4 0 0 0-18.88-5.12l-28.48 8.8-20.32-21.92a18.4 18.4 0 0 0-18.88-5.12l-28.32 8.8-20.32-21.92a18.4 18.4 0 0 0-19.04-4.32l-28.32 8.8-20.16-21.76a18.4 18.4 0 0 0-18.88-5.12l-28.48 8.8L150.72 592a18.4 18.4 0 0 0-18.88-5.12l-28.32 8.8-16-17.6A348.8 348.8 0 0 0 64 608l20.64 22.4a18.24 18.24 0 0 0 18.88 5.12l28.32-8.8 20 21.76a18.4 18.4 0 0 0 18.88 5.12l28.48-8.8 20.16 21.76a18.4 18.4 0 0 0 18.88 5.12l28.48-8.8 20.32 21.92a18.4 18.4 0 0 0 18.88 5.12l28.32-8.8 20.32 21.92a18.4 18.4 0 0 0 18.88 5.12l28.48-8.8 16 18.08 32-18.56a17.44 17.44 0 0 0-1.6-2.56zM530.56 596.32l-36.8 8.32-27.68-25.6a18.4 18.4 0 0 0-16-4.48l-36.8 8.32-27.68-25.6a18.4 18.4 0 0 0-16-4.48l-36.8 8.32-28.8-25.44a18.56 18.56 0 0 0-16-4.48l-36.8 8.32-27.2-25.6a18.4 18.4 0 0 0-16-4.48l-36.8 8.32-7.68-5.76-3.2 2.4c-9.28 6.72-17.92 13.44-26.24 20.16l18.24 16.8a18.4 18.4 0 0 0 16 4.48l36.8-8.32 27.68 25.6a18.4 18.4 0 0 0 16 4.48l36.8-8.32 27.52 25.6a18.24 18.24 0 0 0 16 4.48l36.8-8.32 27.68 25.6a18.4 18.4 0 0 0 16 4.48l36.8-8.32 27.68 25.6a18.24 18.24 0 0 0 16 4.48l36.96-8.32 12 11.04 33.28-19.2-27.52-25.44a18.24 18.24 0 0 0-14.24-4.64zM650.56 526.88l-36.8 8.32-27.68-25.6a18.4 18.4 0 0 0-16-4.48l-36.8 8.32-27.68-25.6a18.4 18.4 0 0 0-16-4.48l-36.8 8.32-27.52-25.6a18.4 18.4 0 0 0-16-4.48l-36.8 8.32-27.68-25.6a18.4 18.4 0 0 0-16-4.48l-36.8 8.32-27.68-25.6c-8 8.8-16 17.6-25.28 26.4l34.72 32a18.24 18.24 0 0 0 16 4.48l36.8-8.32 27.68 25.6a18.24 18.24 0 0 0 16 4.48l36.8-8.32 27.52 25.6a18.4 18.4 0 0 0 16 4.48l36.8-8.32 27.68 25.6a18.4 18.4 0 0 0 16 4.48l36.8-8.32 27.68 25.6a18.24 18.24 0 0 0 16 4.48l36.96-8.32 12 11.04 33.28-19.2-27.52-25.44a18.24 18.24 0 0 0-15.68-3.68z" fill="#FFFFFF" p-id="3778"></path><path d="M955.52 354.08L656 526.72a18.24 18.24 0 0 1 10.56 4.64l27.52 25.44L965.76 400a13.28 13.28 0 0 0 5.28-17.28c-4.8-9.76-11.04-19.2-15.52-28.64zM612.32 573.12a18.24 18.24 0 0 1-16-4.48l-4.64-4.32-54.72 32a18.24 18.24 0 0 1 10.56 4.64l27.52 25.44L661.28 576l-12-11.04zM492.32 642.56a18.24 18.24 0 0 1-16-4.48l-4.64-4.32-51.68 29.92 1.28 1.12 28.16 30.4a17.44 17.44 0 0 1 1.6 2.56l90.72-52.32-12-11.04zM373.12 707.04a18.4 18.4 0 0 1-18.88-5.12L38.56 883.52a292.64 292.64 0 0 0 16 28.64 13.12 13.12 0 0 0 17.76 4.32l346.08-200.32-16-18.08z" fill="#1F88A0" p-id="3779"></path></svg>